# Blender v2.91.0 OBJ File: ''
# www.blender.org
mtllib link7.mtl
o link7_assm_with_adapter_long_Solidbody
v -0.049162 0.009628 -0.000000
v -0.026185 0.042764 -0.000000
v -0.008709 0.049736 -0.000000
v 0.013067 0.048515 -0.000000
v 0.027639 0.041816 -0.000000
v 0.042205 0.027561 -0.000000
v 0.049056 0.010169 -0.000000
v 0.049826 -0.005704 0.000000
v 0.045272 -0.021224 0.000000
v 0.036065 -0.034838 0.000000
v 0.022201 -0.044790 0.000001
v 0.003271 -0.050164 0.000000
v -0.015724 -0.047779 0.000000
v -0.045637 -0.020524 0.000000
v -0.049866 -0.005340 0.000000
v -0.048686 -0.001666 0.106964
v -0.047656 0.011039 0.105726
v -0.042423 0.027208 -0.000000
v -0.042652 0.023937 0.105754
v -0.036289 0.032676 0.105578
v -0.029481 -0.011680 0.119046
v -0.011693 -0.028479 0.119036
v 0.008012 -0.030089 0.119049
v 0.027014 -0.015541 0.119046
v 0.028881 0.012645 0.119087
v 0.011325 0.028576 0.119036
v -0.013078 0.028717 0.119084
v -0.028326 0.011940 0.119035
v -0.018962 0.045053 0.105487
v -0.022599 -0.043353 0.105807
v -0.031976 -0.039369 0.000000
v -0.000945 -0.046467 0.109911
v -0.009238 -0.048035 0.105780
v 0.045776 -0.017621 0.106128
v 0.025203 -0.041938 0.105684
v 0.011961 -0.047501 0.105447
v 0.012710 0.047231 0.105733
v 0.025677 0.041672 0.105632
v 0.041265 0.021639 0.109770
v 0.035031 0.030485 0.110004
v -0.001716 0.046600 0.109723
v 0.009568 0.045307 0.110177
v 0.036457 0.032633 0.105677
v 0.039530 -0.024589 0.109823
v 0.044510 -0.012652 0.110312
v 0.042742 0.023705 0.105552
v 0.046639 0.014232 0.106952
v 0.048926 -0.000172 0.105583
v -0.042026 0.020501 0.109767
v -0.032700 0.033293 0.109736
v -0.046186 0.004354 0.109926
v -0.044909 -0.011657 0.109936
v -0.040277 -0.023181 0.109907
v -0.047802 -0.010334 0.105761
v 0.011923 -0.045243 0.109626
v 0.026196 -0.038434 0.109981
v -0.032477 -0.033680 0.109620
v -0.017955 -0.043359 0.109644
v -0.044221 -0.020673 0.105675
v -0.036629 -0.032781 0.105601
v 0.001598 -0.048785 0.105719
v 0.036181 -0.032552 0.107066
v 0.046745 0.001830 0.109748
v -0.004960 0.048871 0.105737
v -0.018363 0.043352 0.109516
v -0.028329 0.039882 0.105722
v 0.024079 0.040032 0.109663
vn -0.0067 -0.0087 -0.9999
vn -0.0067 0.0087 -0.9999
vn -0.0000 -0.0000 -1.0000
vn -0.0095 -0.0054 -0.9999
vn -0.0007 0.0111 -0.9999
vn -0.0103 -0.0037 -0.9999
vn -0.0109 -0.0015 -0.9999
vn -0.0110 0.0004 -0.9999
vn -0.0108 0.0021 -0.9999
vn 0.0089 0.0065 -0.9999
vn -0.0103 0.0038 -0.9999
vn -0.0095 0.0055 -0.9999
vn -0.0000 -0.0001 -1.0000
vn -0.0007 0.0109 -0.9999
vn -0.9965 0.0821 0.0131
vn -0.9965 0.0830 0.0021
vn -0.9257 0.3435 0.1586
vn -0.9337 0.3579 0.0085
vn -0.9365 0.3507 0.0007
vn -0.9323 0.3617 0.0092
vn -0.9623 0.2503 0.1066
vn -0.8605 0.4945 0.1228
vn -0.8081 0.5888 0.0165
vn -0.8084 0.5887 0.0052
vn -0.0007 -0.0014 1.0000
vn 0.0000 0.0002 1.0000
vn -0.0014 0.0017 1.0000
vn -0.0032 0.0021 1.0000
vn 0.0020 -0.0017 1.0000
vn -0.0039 0.0006 1.0000
vn -0.3705 0.9288 0.0052
vn -0.3781 0.9257 -0.0021
vn -0.4596 -0.8881 0.0073
vn -0.4772 -0.8787 -0.0125
vn -0.0991 -0.5367 0.8379
vn -0.0390 -0.4705 0.8815
vn -0.1246 -0.9922 0.0037
vn -0.1246 -0.9922 0.0052
vn 0.9595 -0.2816 0.0050
vn 0.9617 -0.2741 -0.0029
vn 0.3871 -0.9219 0.0139
vn 0.3874 -0.9219 0.0030
vn 0.3950 0.9186 0.0113
vn 0.3941 0.9190 0.0125
vn 0.4177 0.9086 0.0090
vn 0.4358 0.2845 0.8539
vn 0.0164 0.4555 0.8901
vn 0.7203 0.6844 0.1129
vn 0.6424 0.7662 0.0130
vn 0.6936 0.7037 0.1541
vn 0.6994 0.7147 0.0037
vn 0.5204 -0.2519 0.8159
vn 0.4648 -0.2289 0.8553
vn 0.4792 -0.2431 0.8434
vn 0.9243 0.3816 0.0092
vn 0.9304 0.3665 0.0071
vn 0.9988 0.0485 0.0060
vn -0.3306 -0.9436 0.0180
vn -0.3693 0.3064 0.8773
vn -0.3643 0.3005 0.8815
vn -0.4595 0.0141 0.8881
vn -0.4620 0.0230 0.8866
vn -0.4583 0.0222 0.8885
vn -0.4981 -0.2024 0.8431
vn -0.4935 -0.2066 0.8449
vn -0.5039 -0.2403 0.8297
vn 0.0044 0.4683 0.8836
vn -0.9945 -0.1034 0.0145
vn -0.9947 -0.1031 0.0036
vn 0.1924 -0.7076 0.6799
vn 0.5261 -0.7741 0.3522
vn 0.4063 -0.5829 0.7037
vn -0.4866 -0.5364 0.6896
vn -0.5153 -0.7643 0.3877
vn -0.2841 -0.6807 0.6752
vn -0.6817 -0.4157 0.6020
vn -0.8471 -0.4186 0.3274
vn -0.7579 -0.6179 0.2095
vn -0.0625 -0.7686 0.6366
vn -0.1320 -0.9098 0.3935
vn 0.0414 -0.9642 0.2620
vn 0.1967 -0.9304 0.3093
vn 0.6919 -0.6382 0.3376
vn 0.8407 0.1981 0.5040
vn 0.7176 0.0239 0.6961
vn 0.9620 0.0055 0.2728
vn -0.0743 0.9646 0.2531
vn 0.1838 0.7773 0.6017
vn 0.1825 0.9195 0.3481
vn -0.3764 0.9168 0.1337
vn -0.2918 0.6928 0.6595
vn -0.5448 0.7937 0.2706
vn -0.7425 0.4425 0.5029
vn -0.5554 0.5973 0.5786
vn -0.6937 0.6403 0.3300
vn -0.8039 0.2053 0.5582
vn -0.7458 0.3019 0.5938
vn -0.7296 0.0908 0.6778
vn -0.7603 -0.0404 0.6483
vn -0.7322 -0.1697 0.6597
vn -0.0543 0.8288 0.5569
vn 0.6038 -0.5092 0.6134
vn 0.8817 -0.3554 0.3104
vn 0.7440 -0.1276 0.6559
vn -0.9989 0.0470 0.0094
vn -0.9985 0.0553 0.0023
vn -0.9992 0.0393 0.0016
vn -0.0048 -0.0099 -0.9999
vn -0.3454 0.3508 -0.8704
vn -0.6625 0.7384 -0.1258
vn -0.0083 -0.0072 -0.9999
vn 0.0189 0.5933 -0.8048
vn 0.0776 0.9275 -0.3656
vn -0.0083 0.0071 -0.9999
vn 0.2371 -0.8148 -0.5291
vn 0.1454 -0.6239 -0.7678
vn -0.0039 0.0102 -0.9999
vn -0.4185 -0.3279 -0.8470
vn -0.6906 -0.3224 -0.6474
vn -0.9111 -0.3086 0.2734
vn 0.4654 0.7373 0.4897
vn 0.5378 0.5186 0.6647
vn 0.7041 0.5911 0.3934
vn -0.4954 0.1360 0.8580
vn 0.2708 0.4005 0.8754
vn 0.3829 0.6118 0.6922
vn -0.0001 -0.0015 1.0000
vn 0.2156 -0.0203 0.9763
vn 0.3264 0.0402 0.9444
vn 0.3118 -0.3722 0.8742
vn 0.2032 -0.4391 0.8752
vn -0.9633 -0.2683 0.0061
vn -0.2448 -0.4113 0.8780
vn -0.2095 0.4809 0.8513
vn 0.7119 0.3299 0.6200
vn 0.7711 0.5586 0.3055
vn 0.8177 0.5754 0.0169
vn 0.9877 0.1553 0.0164
vn 0.7333 -0.6798 0.0116
vn 0.8352 -0.5497 0.0128
vn -0.3429 -0.3582 0.8684
vn 0.9841 -0.1777 0.0066
vn 0.6139 -0.7893 0.0101
vn 0.3070 0.3590 0.8814
vn -0.5007 -0.0440 0.8645
usemtl robot
s off
f 1//1 2//2 3//3
f 1//4 4//5 5//3
f 1//6 5//3 6//3
f 1//7 6//3 7//3
f 1//8 7//3 8//3
f 1//9 8//10 9//3
f 1//11 9//3 10//3
f 1//12 10//13 11//13
f 1//2 12//3 13//3
f 1//14 14//3 15//3
f 16//15 17//15 1//16
f 17//17 18//18 1//19
f 19//20 18//20 17//21
f 19//22 20//23 18//24
f 21//25 22//25 23//25
f 21//26 23//26 24//26
f 21//27 25//28 26//27
f 21//29 26//29 27//29
f 21//30 27//30 28//30
f 29//31 3//31 2//32
f 30//33 31//34 13//33
f 32//35 23//36 22//36
f 33//37 13//38 12//38
f 34//39 9//39 8//40
f 35//41 36//41 11//42
f 37//43 38//44 4//44
f 38//45 5//45 4//45
f 39//46 40//46 25//46
f 41//47 27//47 42//47
f 43//48 5//49 38//49
f 43//50 6//51 5//51
f 44//52 45//53 24//54
f 46//55 47//55 6//55
f 7//56 6//56 47//56
f 48//57 8//57 7//57
f 33//58 30//58 13//58
f 49//59 28//59 27//59 50//60
f 21//61 28//62 51//63
f 21//64 52//65 53//66
f 42//67 27//67 26//67
f 54//68 16//68 15//69
s 1
f 55//70 35//71 56//72
f 57//73 30//74 58//75
f 53//76 59//77 60//78
f 30//74 57//73 60//78
f 32//79 33//80 61//81
f 35//71 55//70 36//82
f 62//83 56//72 35//71
f 47//84 63//85 48//86
f 64//87 42//88 37//89
f 29//90 65//91 64//87
f 66//92 65//91 29//90
f 19//93 50//94 20//95
f 17//96 49//97 19//93
f 51//98 16//99 52//100
f 49//97 17//96 51//98
f 50//94 19//93 49//97
f 42//88 64//87 41//101
f 44//102 34//103 45//104
f 16//105 1//106 15//107
f 1//108 18//109 2//110
f 1//111 3//112 4//113
f 1//114 11//115 12//116
f 1//117 13//3 31//118
f 1//117 31//118 14//119
f 36//82 12//116 11//115
f 59//77 54//120 14//119
f 65//91 66//92 50//94
f 60//78 59//77 14//119
f 38//121 40//122 43//123
f 28//124 49//97 51//98
f 42//88 26//125 67//126
f 21//127 24//128 25//129
f 52//100 59//77 53//76
f 56//72 24//130 23//131
f 66//92 29//90 2//110
f 34//103 63//85 45//104
f 29//90 64//87 3//112
f 54//120 15//132 14//119
f 58//75 32//79 22//133
f 41//101 65//91 27//134
f 58//75 33//80 32//79
f 61//81 33//80 12//116
f 37//89 67//126 38//121
f 16//99 54//120 52//100
f 36//82 61//81 12//116
f 44//102 24//130 56//72
f 20//95 50//94 66//92
f 47//84 39//135 63//85
f 55//70 61//81 36//82
f 44//102 62//83 34//103
f 64//87 65//91 41//101
f 43//123 39//135 46//136
f 63//85 39//135 25//129
f 60//78 31//118 30//74
f 45//104 63//85 25//129
f 46//136 6//137 43//123
f 7//138 47//84 48//86
f 18//109 20//95 66//92 2//110
f 58//75 30//74 33//80
f 38//121 67//126 40//122
f 62//83 10//139 9//140 34//103
f 53//76 57//73 21//141
f 57//73 58//75 22//133 21//141
f 48//86 34//103 8//142
f 60//78 14//119 31//118
f 32//79 55//70 23//131
f 44//102 56//72 62//83
f 52//100 54//120 59//77
f 27//134 65//91 50//94
f 34//103 48//86 63//85
f 37//89 42//88 67//126
f 10//139 62//83 35//71 11//143
f 57//73 53//76 60//78
f 55//70 56//72 23//131
f 25//144 40//122 67//126 26//125
f 47//84 46//136 39//135
f 4//113 3//112 64//87 37//89
f 51//98 17//96 16//99
f 21//145 51//98 52//100
f 55//70 32//79 61//81
f 43//123 40//122 39//135
f 45//104 25//129 24//128
